<svg width="75.681mm" height="11.126mm" version="1.1" viewBox="0 0 75.681 11.126" xmlns="http://www.w3.org/2000/svg">
 <g transform="translate(-67.201 -98.335)" fill="#168967">
  <g stroke-width="4.2033">
   <path d="m85.463 98.335c-3.0722-2e-5 -5.5625 2.4907-5.5625 5.563-2.1e-5 3.0722 2.4902 5.563 5.5625 5.563 3.0722 1e-5 5.563-2.4907 5.563-5.563 1e-5 -3.0722-2.4907-5.563-5.563-5.563zm5.17e-4 2.388a3.175 3.175 0 0 1 3.175 3.175 3.175 3.175 0 0 1-3.175 3.175 3.175 3.175 0 0 1-3.175-3.175 3.175 3.175 0 0 1 3.175-3.175z" stop-color="#000000" style="paint-order:stroke fill markers;white-space:pre"/>
   <path d="m111.38 98.335c-3.0722-2e-5 -5.5625 2.4907-5.5624 5.563-2e-5 3.0722 2.4902 5.563 5.5624 5.563 3.0722 1e-5 5.563-2.4907 5.563-5.563 1e-5 -3.0722-2.4907-5.563-5.563-5.563zm5.2e-4 2.388a3.175 3.175 0 0 1 3.175 3.175 3.175 3.175 0 0 1-3.175 3.175 3.175 3.175 0 0 1-3.175-3.175 3.175 3.175 0 0 1 3.175-3.175z" stop-color="#000000" style="paint-order:stroke fill markers;white-space:pre"/>
   <path d="m137.32 98.335c-3.0722-2e-5 -5.5625 2.4907-5.5624 5.563-2e-5 3.0722 2.4902 5.563 5.5624 5.563 3.0722 1e-5 5.563-2.4907 5.563-5.563 1e-5 -3.0722-2.4907-5.563-5.563-5.563zm5.2e-4 2.388a3.175 3.175 0 0 1 3.175 3.175 3.175 3.175 0 0 1-3.175 3.175 3.175 3.175 0 0 1-3.175-3.175 3.175 3.175 0 0 1 3.175-3.175z" stop-color="#000000" style="paint-order:stroke fill markers;white-space:pre"/>
  </g>
  <path d="m93.143 98.606v10.583h2.6458v-4.0499h5.2617v4.0499h2.6458v-10.583h-2.6458v3.8876h-5.2617v-3.8876z" stop-color="#000000" stroke-width="7.2514" style="paint-order:stroke fill markers;white-space:pre"/>
  <path d="m67.201 98.605v10.585h2.6458v-7.9396h5.2917v7.937h2.6458v-7.9375h-2.6458v-2.6453z" stop-color="#000000" stroke-width="6.2799" style="paint-order:stroke fill markers;white-space:pre"/>
  <path d="m119.05 98.606v9.3374h5.1e-4v1.2459h7.9375v-2.6458h-5.2922v-7.9375zm7.9385 0v7.9375h2.6458v-7.9375z" stop-color="#000000" stroke-width="6.2799" style="paint-order:stroke fill markers;white-space:pre"/>
 </g>
</svg>
